name rise34.3697peak60.0498fall86.3158.mot
datacolumns 19
datarows 27
range 14.95660600000000 14.99994400000000
endheader
time	ground_force1_vx	ground_force1_vy	ground_force1_vz	ground_force1_px	ground_force1_py	ground_force1_pz	ground_force2_vx	ground_force2_vy	ground_force2_vz	ground_force2_px	ground_force2_py	ground_force2_pz	ground_torque1_x	ground_torque1_y	ground_torque1_z	ground_torque2_x	ground_torque2_y	ground_torque2_z	
14.95660600000000	-0.00592400000000	691.31541900000002	41.24112800000000	0.28165900000000	0.00000000000000	0.11996400000000	0.00000000000000	0.00000000000000	0.00000000000000	0.00000000000000	0.00000000000000	0.00000000000000	0.00000000000000	22.83134700000000	0.00000000000000	0.00000000000000	0.00000000000000	0.00000000000000	
14.95827400000000	-0.55350500000000	691.33558400000004	41.22533400000000	0.28046200000000	0.00000000000000	0.11997700000000	0.00000000000000	0.00000000000000	0.00000000000000	0.00000000000000	0.00000000000000	0.00000000000000	0.00000000000000	22.87675400000000	0.00000000000000	0.00000000000000	0.00000000000000	0.00000000000000	
14.95994500000000	-1.11057700000000	691.38246600000002	41.21243600000000	0.27928000000000	0.00000000000000	0.11999000000000	0.00000000000000	0.00000000000000	0.00000000000000	0.00000000000000	0.00000000000000	0.00000000000000	0.00000000000000	22.92806200000000	0.00000000000000	0.00000000000000	0.00000000000000	0.00000000000000	
14.96161000000000	-1.67721700000000	691.45624799999996	41.20223000000000	0.27811200000000	0.00000000000000	0.12000300000000	0.00000000000000	0.00000000000000	0.00000000000000	0.00000000000000	0.00000000000000	0.00000000000000	0.00000000000000	22.98514000000000	0.00000000000000	0.00000000000000	0.00000000000000	0.00000000000000	
14.96327700000000	-2.25348800000000	691.55725399999994	41.19453600000000	0.27695800000000	0.00000000000000	0.12001500000000	0.00000000000000	0.00000000000000	0.00000000000000	0.00000000000000	0.00000000000000	0.00000000000000	0.00000000000000	23.04786300000000	0.00000000000000	0.00000000000000	0.00000000000000	0.00000000000000	
14.96494500000000	-2.83943100000000	691.68594700000006	41.18919200000000	0.27581700000000	0.00000000000000	0.12002700000000	0.00000000000000	0.00000000000000	0.00000000000000	0.00000000000000	0.00000000000000	0.00000000000000	0.00000000000000	23.11610800000000	0.00000000000000	0.00000000000000	0.00000000000000	0.00000000000000	
14.96662500000000	-3.43507200000000	691.84293100000002	41.18605900000000	0.27469100000000	0.00000000000000	0.12003900000000	0.00000000000000	0.00000000000000	0.00000000000000	0.00000000000000	0.00000000000000	0.00000000000000	0.00000000000000	23.18975600000000	0.00000000000000	0.00000000000000	0.00000000000000	0.00000000000000	
14.96827900000000	-4.04041800000000	692.02895000000001	41.18502000000000	0.27357700000000	0.00000000000000	0.12005100000000	0.00000000000000	0.00000000000000	0.00000000000000	0.00000000000000	0.00000000000000	0.00000000000000	0.00000000000000	23.26869500000000	0.00000000000000	0.00000000000000	0.00000000000000	0.00000000000000	
14.96994500000000	-4.65545700000000	692.24487899999997	41.18598100000000	0.27247700000000	0.00000000000000	0.12006200000000	0.00000000000000	0.00000000000000	0.00000000000000	0.00000000000000	0.00000000000000	0.00000000000000	0.00000000000000	23.35281400000000	0.00000000000000	0.00000000000000	0.00000000000000	0.00000000000000	
14.97160700000000	-5.28016000000000	692.49172599999997	41.18887200000000	0.27139000000000	0.00000000000000	0.12007200000000	0.00000000000000	0.00000000000000	0.00000000000000	0.00000000000000	0.00000000000000	0.00000000000000	0.00000000000000	23.44200900000000	0.00000000000000	0.00000000000000	0.00000000000000	0.00000000000000	
14.97328000000000	-5.91447700000000	692.77062699999999	41.19364400000000	0.27031500000000	0.00000000000000	0.12008200000000	0.00000000000000	0.00000000000000	0.00000000000000	0.00000000000000	0.00000000000000	0.00000000000000	0.00000000000000	23.53617800000000	0.00000000000000	0.00000000000000	0.00000000000000	0.00000000000000	
14.97493900000000	-6.55834000000000	693.08283600000004	41.20027500000000	0.26925200000000	0.00000000000000	0.12009200000000	0.00000000000000	0.00000000000000	0.00000000000000	0.00000000000000	0.00000000000000	0.00000000000000	0.00000000000000	23.63522500000000	0.00000000000000	0.00000000000000	0.00000000000000	0.00000000000000	
14.97661200000000	-7.21166100000000	693.42972199999997	41.20876500000000	0.26820100000000	0.00000000000000	0.12010100000000	0.00000000000000	0.00000000000000	0.00000000000000	0.00000000000000	0.00000000000000	0.00000000000000	0.00000000000000	23.73905600000000	0.00000000000000	0.00000000000000	0.00000000000000	0.00000000000000	
14.97827400000000	-7.87433400000000	693.81276100000002	41.21913800000000	0.26716100000000	0.00000000000000	0.12011000000000	0.00000000000000	0.00000000000000	0.00000000000000	0.00000000000000	0.00000000000000	0.00000000000000	0.00000000000000	23.84758200000000	0.00000000000000	0.00000000000000	0.00000000000000	0.00000000000000	
14.97994200000000	-8.54623000000000	694.23352599999998	41.23144300000000	0.26613200000000	0.00000000000000	0.12011800000000	0.00000000000000	0.00000000000000	0.00000000000000	0.00000000000000	0.00000000000000	0.00000000000000	0.00000000000000	23.96071800000000	0.00000000000000	0.00000000000000	0.00000000000000	0.00000000000000	
14.98161000000000	-9.22720300000000	694.69367999999997	41.24575100000000	0.26511400000000	0.00000000000000	0.12012600000000	0.00000000000000	0.00000000000000	0.00000000000000	0.00000000000000	0.00000000000000	0.00000000000000	0.00000000000000	24.07838000000000	0.00000000000000	0.00000000000000	0.00000000000000	0.00000000000000	
14.98327600000000	-9.91708400000000	695.19496600000002	41.26215900000000	0.26410500000000	0.00000000000000	0.12013300000000	0.00000000000000	0.00000000000000	0.00000000000000	0.00000000000000	0.00000000000000	0.00000000000000	0.00000000000000	24.20048800000000	0.00000000000000	0.00000000000000	0.00000000000000	0.00000000000000	
14.98494100000000	-10.61568600000000	695.73919400000000	41.28078500000000	0.26310700000000	0.00000000000000	0.12014000000000	0.00000000000000	0.00000000000000	0.00000000000000	0.00000000000000	0.00000000000000	0.00000000000000	0.00000000000000	24.32696600000000	0.00000000000000	0.00000000000000	0.00000000000000	0.00000000000000	
14.98661000000000	-11.32279800000000	696.32823399999995	41.30177000000000	0.26211800000000	0.00000000000000	0.12014600000000	0.00000000000000	0.00000000000000	0.00000000000000	0.00000000000000	0.00000000000000	0.00000000000000	0.00000000000000	24.45773700000000	0.00000000000000	0.00000000000000	0.00000000000000	0.00000000000000	
14.98827700000000	-12.03819100000000	696.96400000000006	41.32527900000000	0.26113800000000	0.00000000000000	0.12015200000000	0.00000000000000	0.00000000000000	0.00000000000000	0.00000000000000	0.00000000000000	0.00000000000000	0.00000000000000	24.59272900000000	0.00000000000000	0.00000000000000	0.00000000000000	0.00000000000000	
14.98994100000000	-12.76161300000000	697.64843900000005	41.35149800000000	0.26016600000000	0.00000000000000	0.12015700000000	0.00000000000000	0.00000000000000	0.00000000000000	0.00000000000000	0.00000000000000	0.00000000000000	0.00000000000000	24.73186800000000	0.00000000000000	0.00000000000000	0.00000000000000	0.00000000000000	
14.99160900000000	-13.49279200000000	698.38352099999997	41.38063200000000	0.25920200000000	0.00000000000000	0.12016200000000	0.00000000000000	0.00000000000000	0.00000000000000	0.00000000000000	0.00000000000000	0.00000000000000	0.00000000000000	24.87508400000000	0.00000000000000	0.00000000000000	0.00000000000000	0.00000000000000	
14.99327200000000	-14.23143400000000	699.17122199999994	41.41290800000000	0.25824600000000	0.00000000000000	0.12016600000000	0.00000000000000	0.00000000000000	0.00000000000000	0.00000000000000	0.00000000000000	0.00000000000000	0.00000000000000	25.02230600000000	0.00000000000000	0.00000000000000	0.00000000000000	0.00000000000000	
14.99494500000000	-14.97722200000000	700.01351099999999	41.44857300000000	0.25729700000000	0.00000000000000	0.12017000000000	0.00000000000000	0.00000000000000	0.00000000000000	0.00000000000000	0.00000000000000	0.00000000000000	0.00000000000000	25.17346200000000	0.00000000000000	0.00000000000000	0.00000000000000	0.00000000000000	
14.99660900000000	-15.72981900000000	700.91233799999998	41.48789000000000	0.25635600000000	0.00000000000000	0.12017300000000	0.00000000000000	0.00000000000000	0.00000000000000	0.00000000000000	0.00000000000000	0.00000000000000	0.00000000000000	25.32848200000000	0.00000000000000	0.00000000000000	0.00000000000000	0.00000000000000	
14.99827900000000	-16.48886700000000	701.86961699999995	41.53114300000000	0.25542100000000	0.00000000000000	0.12017600000000	0.00000000000000	0.00000000000000	0.00000000000000	0.00000000000000	0.00000000000000	0.00000000000000	0.00000000000000	25.48729400000000	0.00000000000000	0.00000000000000	0.00000000000000	0.00000000000000	
14.99994400000000	-17.25398500000000	702.88721599999997	41.57862800000000	0.25449200000000	0.00000000000000	0.12017800000000	0.00000000000000	0.00000000000000	0.00000000000000	0.00000000000000	0.00000000000000	0.00000000000000	0.00000000000000	25.64982500000000	0.00000000000000	0.00000000000000	0.00000000000000	0.00000000000000	
